<?xml version="1.0" encoding="utf-8"?>
<!-- Generator: Adobe Illustrator 22.1.0, SVG Export Plug-In . SVG Version: 6.00 Build 0)  -->
<svg version="1.1" id="obrazek" xmlns="http://www.w3.org/2000/svg" xmlns:xlink="http://www.w3.org/1999/xlink" x="0px" y="0px"
	 viewBox="0 0 603.5 392.5" style="enable-background:new 0 0 603.5 392.5;" xml:space="preserve">
<style type="text/css">
	.st0{fill:none;stroke:#BBBBBB;stroke-width:5;stroke-dasharray:20,10;}
	.st1{fill:#BBBBBB;}
	.st2{fill:#C55F1C;}
</style>
<path id="Prostokąt_4" class="st0" d="M17.5,2.5h519c8.3,0,15,6.7,15,15v338c0,8.3-6.7,15-15,15h-519c-8.3,0-15-6.7-15-15v-338
	C2.5,9.2,9.2,2.5,17.5,2.5z"/>
<path class="st1" d="M569.5,135.5v242c0,8.3-6.7,15-15,15h-372c-1.1,0-2.3-0.1-3.3-0.4c-6.7-1.5-11.7-7.5-11.7-14.6v-242
	c0-8.3,6.7-15,15-15h372C562.8,120.5,569.5,127.2,569.5,135.5z"/>
<path class="st2" d="M346.5,392.1H179.2c-6.7-1.5-11.7-7.5-11.7-14.6v-14.3l75-75L346.5,392.1z"/>
<path class="st2" d="M569.5,358.4v19.1c0,8.3-6.7,15-15,15h-346l0.4-0.4l68.7-68.9L406,194.5L569.5,358.4z"/>
<circle id="Elipsa_1" class="st2" cx="251" cy="206" r="35.5"/>
</svg>
